<svg width="1280" height="720" viewBox="0 0 1280 720" fill="none" xmlns="http://www.w3.org/2000/svg">
  <rect width="1280" height="720" fill="#ECF3EE"/>
  <circle cx="104" cy="112" r="160" fill="#CFE7DF"/>
  <circle cx="1160" cy="130" r="120" fill="#F1E9C2"/>
  <rect x="74" y="56" width="1132" height="136" rx="28" fill="#FFFFFF" fill-opacity="0.8" stroke="#FFFFFF"/>
  <text x="112" y="102" fill="#0D7A67" font-size="24" font-family="IBM Plex Mono, monospace">HELP DESK INTERNO</text>
  <text x="112" y="148" fill="#142321" font-size="50" font-weight="700" font-family="Space Grotesk, sans-serif">Painel de Chamados</text>
  <text x="112" y="180" fill="#4F6662" font-size="21" font-family="Space Grotesk, sans-serif">Prioridades, status e historico persistidos em SQLite.</text>
  <rect x="74" y="224" width="360" height="412" rx="26" fill="#FFFFFF" fill-opacity="0.82" stroke="#FFFFFF"/>
  <text x="106" y="276" fill="#142321" font-size="34" font-weight="700" font-family="Space Grotesk, sans-serif">Abrir Chamado</text>
  <text x="106" y="320" fill="#4F6662" font-size="18" font-family="Space Grotesk, sans-serif">Titulo</text>
  <rect x="106" y="334" width="296" height="54" rx="14" fill="#FFFFFF" stroke="#CAD9D5"/>
  <text x="122" y="368" fill="#7D8F8B" font-size="18" font-family="Space Grotesk, sans-serif">Meu PC nao liga</text>
  <text x="106" y="430" fill="#4F6662" font-size="18" font-family="Space Grotesk, sans-serif">Descricao</text>
  <rect x="106" y="444" width="296" height="94" rx="14" fill="#FFFFFF" stroke="#CAD9D5"/>
  <text x="122" y="476" fill="#7D8F8B" font-size="18" font-family="Space Grotesk, sans-serif">Nao responde ao apertar power.</text>
  <text x="106" y="578" fill="#4F6662" font-size="18" font-family="Space Grotesk, sans-serif">Prioridade</text>
  <rect x="106" y="592" width="296" height="54" rx="14" fill="#FFFFFF" stroke="#CAD9D5"/>
  <text x="122" y="626" fill="#7D8F8B" font-size="18" font-family="Space Grotesk, sans-serif">Alta</text>
  <rect x="466" y="224" width="740" height="412" rx="26" fill="#FFFFFF" fill-opacity="0.82" stroke="#FFFFFF"/>
  <text x="500" y="276" fill="#142321" font-size="34" font-weight="700" font-family="Space Grotesk, sans-serif">Chamados</text>
  <rect x="500" y="314" width="672" height="96" rx="20" fill="#FFFFFF" stroke="#DFE8E5"/>
  <text x="530" y="352" fill="#142321" font-size="24" font-weight="700" font-family="Space Grotesk, sans-serif">Meu PC nao liga</text>
  <rect x="1038" y="332" width="102" height="30" rx="15" fill="#C0392B"/>
  <text x="1066" y="352" fill="#FFFFFF" font-size="16" font-family="IBM Plex Mono, monospace">Alta</text>
  <text x="530" y="382" fill="#4F6662" font-size="18" font-family="Space Grotesk, sans-serif">Criado por Usuario Padrao | Status: aberto</text>
  <rect x="980" y="366" width="160" height="28" rx="14" fill="#0D7A67"/>
  <text x="1003" y="384" fill="#FFFFFF" font-size="15" font-weight="700" font-family="Space Grotesk, sans-serif">Marcar Resolvido</text>
  <rect x="500" y="434" width="672" height="96" rx="20" fill="#FFFFFF" stroke="#DFE8E5"/>
  <text x="530" y="472" fill="#142321" font-size="24" font-weight="700" font-family="Space Grotesk, sans-serif">Internet nao funciona</text>
  <rect x="1022" y="452" width="118" height="30" rx="15" fill="#D68910"/>
  <text x="1044" y="472" fill="#FFFFFF" font-size="16" font-family="IBM Plex Mono, monospace">Media</text>
  <text x="530" y="502" fill="#4F6662" font-size="18" font-family="Space Grotesk, sans-serif">Criado por Usuario Padrao | Status: resolvido</text>
  <rect x="500" y="554" width="672" height="50" rx="18" fill="#F7FAF8" stroke="#DFE8E5"/>
  <text x="530" y="586" fill="#355C54" font-size="18" font-family="Space Grotesk, sans-serif">Persistencia real: dados continuam salvos apos reiniciar o servidor.</text>
</svg>
