<svg width="1280" height="720" viewBox="0 0 1280 720" fill="none" xmlns="http://www.w3.org/2000/svg">
  <rect width="1280" height="720" fill="#ECF3EE"/>
  <circle cx="180" cy="130" r="170" fill="#C9E6DC"/>
  <circle cx="1090" cy="60" r="150" fill="#F0E8B8"/>
  <rect x="92" y="68" width="1096" height="132" rx="28" fill="#FFFFFF" fill-opacity="0.78" stroke="#FFFFFF"/>
  <text x="132" y="112" fill="#0D7A67" font-size="24" font-family="IBM Plex Mono, monospace">HELP DESK INTERNO</text>
  <text x="132" y="160" fill="#142321" font-size="52" font-weight="700" font-family="Space Grotesk, sans-serif">Sistema de Chamados</text>
  <text x="132" y="193" fill="#4F6662" font-size="22" font-family="Space Grotesk, sans-serif">Login com perfis de acesso e abertura de chamados de suporte.</text>
  <rect x="92" y="230" width="360" height="356" rx="26" fill="#FFFFFF" fill-opacity="0.82" stroke="#FFFFFF"/>
  <text x="124" y="282" fill="#142321" font-size="34" font-weight="700" font-family="Space Grotesk, sans-serif">Login</text>
  <text x="124" y="328" fill="#4F6662" font-size="18" font-family="Space Grotesk, sans-serif">E-mail</text>
  <rect x="124" y="342" width="296" height="54" rx="14" fill="#FFFFFF" stroke="#CAD9D5"/>
  <text x="140" y="376" fill="#7D8F8B" font-size="18" font-family="Space Grotesk, sans-serif">admin@helpdesk.local</text>
  <text x="124" y="438" fill="#4F6662" font-size="18" font-family="Space Grotesk, sans-serif">Senha</text>
  <rect x="124" y="452" width="296" height="54" rx="14" fill="#FFFFFF" stroke="#CAD9D5"/>
  <text x="140" y="486" fill="#7D8F8B" font-size="18" font-family="Space Grotesk, sans-serif">123456</text>
  <rect x="124" y="530" width="296" height="56" rx="16" fill="#0D7A67"/>
  <text x="225" y="566" fill="#FFFFFF" font-size="22" font-weight="700" font-family="Space Grotesk, sans-serif">Entrar</text>
  <rect x="484" y="230" width="704" height="356" rx="26" fill="#FFFFFF" fill-opacity="0.82" stroke="#FFFFFF"/>
  <text x="520" y="282" fill="#142321" font-size="34" font-weight="700" font-family="Space Grotesk, sans-serif">Perfis e fluxo</text>
  <rect x="520" y="320" width="184" height="92" rx="20" fill="#DDF2EB"/>
  <text x="552" y="360" fill="#1F5C50" font-size="24" font-weight="700" font-family="Space Grotesk, sans-serif">Admin</text>
  <text x="552" y="388" fill="#355C54" font-size="18" font-family="Space Grotesk, sans-serif">visualiza e resolve</text>
  <rect x="736" y="320" width="184" height="92" rx="20" fill="#EFE4BF"/>
  <text x="760" y="360" fill="#6B5510" font-size="24" font-weight="700" font-family="Space Grotesk, sans-serif">Tecnico</text>
  <text x="760" y="388" fill="#6B5510" font-size="18" font-family="Space Grotesk, sans-serif">visualiza e resolve</text>
  <rect x="952" y="320" width="184" height="92" rx="20" fill="#E2EEF7"/>
  <text x="980" y="360" fill="#28597A" font-size="24" font-weight="700" font-family="Space Grotesk, sans-serif">Usuario</text>
  <text x="980" y="388" fill="#28597A" font-size="18" font-family="Space Grotesk, sans-serif">abre e acompanha</text>
  <rect x="520" y="444" width="616" height="106" rx="22" fill="#F7FAF8" stroke="#DFE8E5"/>
  <text x="550" y="486" fill="#142321" font-size="22" font-weight="700" font-family="Space Grotesk, sans-serif">Seguranca aplicada</text>
  <text x="550" y="518" fill="#4F6662" font-size="18" font-family="Space Grotesk, sans-serif">• Senhas com hash bcrypt</text>
  <text x="550" y="546" fill="#4F6662" font-size="18" font-family="Space Grotesk, sans-serif">• Sessao persistida em SQLite</text>
</svg>
